<?xml version="1.0" encoding="UTF-8" standalone="no"?>
<!-- Created with Inkscape (http://www.inkscape.org/) -->

<svg
   xmlns:dc="http://purl.org/dc/elements/1.1/"
   xmlns:cc="http://creativecommons.org/ns#"
   xmlns:rdf="http://www.w3.org/1999/02/22-rdf-syntax-ns#"
   xmlns:svg="http://www.w3.org/2000/svg"
   xmlns="http://www.w3.org/2000/svg"
   xmlns:sodipodi="http://sodipodi.sourceforge.net/DTD/sodipodi-0.dtd"
   xmlns:inkscape="http://www.inkscape.org/namespaces/inkscape"
   width="210mm"
   height="297mm"
   viewBox="0 0 210 297"
   version="1.1"
   id="svg8"
   inkscape:version="0.92.1 r"
   sodipodi:docname="battery.svg">
  <defs
     id="defs2" />
  <sodipodi:namedview
     id="base"
     pagecolor="#ffffff"
     bordercolor="#666666"
     borderopacity="1.0"
     inkscape:pageopacity="0.0"
     inkscape:pageshadow="2"
     inkscape:zoom="1.4"
     inkscape:cx="328.34815"
     inkscape:cy="699.84505"
     inkscape:document-units="mm"
     inkscape:current-layer="layer1"
     showgrid="false"
     inkscape:window-width="1920"
     inkscape:window-height="1019"
     inkscape:window-x="0"
     inkscape:window-y="0"
     inkscape:window-maximized="1" />
  <metadata
     id="metadata5">
    <rdf:RDF>
      <cc:Work
         rdf:about="">
        <dc:format>image/svg+xml</dc:format>
        <dc:type
           rdf:resource="http://purl.org/dc/dcmitype/StillImage" />
        <dc:title></dc:title>
      </cc:Work>
    </rdf:RDF>
  </metadata>
  <g
     inkscape:label="Layer 1"
     inkscape:groupmode="layer"
     id="layer1">
    <g
       id="g79">
      <rect
         transform="matrix(0,1,1,0,0,0)"
         ry="2.7931373"
         y="26.876701"
         x="69.795914"
         height="54.952541"
         width="17.386906"
         id="rect10"
         style="fill:#333333;stroke-width:0.18542926" />
      <rect
         transform="matrix(0,1,1,0,0,0)"
         style="fill:#333333;stroke-width:0.03951516"
         id="rect12"
         width="8.1995153"
         height="5.2916684"
         x="74.38961"
         y="24.760033"
         ry="1.0872333" />
    </g>
    <g
       id="g75"
       style="fill:#aa0000">
      <rect
         transform="matrix(0,1,1,0,0,0)"
         ry="0.81061965"
         y="72.385025"
         x="71.984184"
         height="5.9598422"
         width="13.010366"
         id="rect22"
         style="fill:#aa0000;stroke-width:0.05282451" />
    </g>
    <g
       id="g85"
       transform="translate(0,21.166667)">
      <rect
         style="fill:#333333;stroke-width:0.18542926"
         id="rect81"
         width="17.386906"
         height="54.952541"
         x="69.795914"
         y="26.876701"
         ry="2.7931373"
         transform="matrix(0,1,1,0,0,0)" />
      <rect
         ry="1.0872333"
         y="24.760033"
         x="74.38961"
         height="5.2916684"
         width="8.1995153"
         id="rect83"
         style="fill:#333333;stroke-width:0.03951516"
         transform="matrix(0,1,1,0,0,0)" />
    </g>
    <g
       id="g97"
       transform="translate(0,21.166667)">
      <rect
         ry="0.81061965"
         y="61.801697"
         x="71.984184"
         height="5.9598422"
         width="13.010366"
         id="rect93"
         style="fill:#ff7f2a;stroke-width:0.05282451"
         transform="matrix(0,1,1,0,0,0)" />
      <rect
         style="fill:#ff7f2a;stroke-width:0.05282451"
         id="rect95"
         width="13.010366"
         height="5.9598422"
         x="71.984184"
         y="72.385025"
         ry="0.81061965"
         transform="matrix(0,1,1,0,0,0)" />
    </g>
    <g
       id="g103"
       transform="translate(0,42.333335)">
      <rect
         style="fill:#333333;stroke-width:0.18542926"
         id="rect99"
         width="17.386906"
         height="54.952541"
         x="69.795914"
         y="26.876701"
         ry="2.7931373"
         transform="matrix(0,1,1,0,0,0)" />
      <rect
         ry="1.0872333"
         y="24.760033"
         x="74.38961"
         height="5.2916684"
         width="8.1995153"
         id="rect101"
         style="fill:#333333;stroke-width:0.03951516"
         transform="matrix(0,1,1,0,0,0)" />
    </g>
    <g
       id="g115"
       transform="translate(0,42.333335)">
      <rect
         style="fill:#ffcc00;stroke-width:0.05282451"
         id="rect109"
         width="13.010366"
         height="5.9598422"
         x="71.984184"
         y="51.218369"
         ry="0.81061965"
         transform="matrix(0,1,1,0,0,0)" />
      <rect
         ry="0.81061965"
         y="61.801697"
         x="71.984184"
         height="5.9598422"
         width="13.010366"
         id="rect111"
         style="fill:#ffcc00;stroke-width:0.05282451"
         transform="matrix(0,1,1,0,0,0)" />
      <rect
         style="fill:#ffcc00;stroke-width:0.05282451"
         id="rect113"
         width="13.010366"
         height="5.9598422"
         x="71.984184"
         y="72.385025"
         ry="0.81061965"
         transform="matrix(0,1,1,0,0,0)" />
    </g>
    <g
       transform="translate(0,63.500003)"
       id="g121">
      <rect
         transform="matrix(0,1,1,0,0,0)"
         ry="2.7931373"
         y="26.876701"
         x="69.795914"
         height="54.952541"
         width="17.386906"
         id="rect117"
         style="fill:#333333;stroke-width:0.18542926" />
      <rect
         transform="matrix(0,1,1,0,0,0)"
         style="fill:#333333;stroke-width:0.03951516"
         id="rect119"
         width="8.1995153"
         height="5.2916684"
         x="74.38961"
         y="24.760033"
         ry="1.0872333" />
    </g>
    <g
       transform="translate(0,63.500003)"
       id="g133">
      <rect
         transform="matrix(0,1,1,0,0,0)"
         style="fill:#d4ff2a;stroke-width:0.05282451"
         id="rect125"
         width="13.010366"
         height="5.9598422"
         x="71.984184"
         y="40.635036"
         ry="0.81061965" />
      <rect
         transform="matrix(0,1,1,0,0,0)"
         ry="0.81061965"
         y="51.218369"
         x="71.984184"
         height="5.9598422"
         width="13.010366"
         id="rect127"
         style="fill:#d4ff2a;stroke-width:0.05282451" />
      <rect
         transform="matrix(0,1,1,0,0,0)"
         style="fill:#d4ff2a;stroke-width:0.05282451"
         id="rect129"
         width="13.010366"
         height="5.9598422"
         x="71.984184"
         y="61.801697"
         ry="0.81061965" />
      <rect
         transform="matrix(0,1,1,0,0,0)"
         ry="0.81061965"
         y="72.385025"
         x="71.984184"
         height="5.9598422"
         width="13.010366"
         id="rect131"
         style="fill:#d4ff2a;stroke-width:0.05282451" />
    </g>
    <g
       id="g139"
       transform="translate(0,84.666671)">
      <rect
         style="fill:#333333;stroke-width:0.18542926"
         id="rect135"
         width="17.386906"
         height="54.952541"
         x="69.795914"
         y="26.876701"
         ry="2.7931373"
         transform="matrix(0,1,1,0,0,0)" />
      <rect
         ry="1.0872333"
         y="24.760033"
         x="74.38961"
         height="5.2916684"
         width="8.1995153"
         id="rect137"
         style="fill:#333333;stroke-width:0.03951516"
         transform="matrix(0,1,1,0,0,0)" />
    </g>
    <g
       id="g151"
       transform="translate(0,84.666671)">
      <rect
         style="fill:#008000;stroke-width:0.05282451"
         id="rect141"
         width="13.010366"
         height="5.9598422"
         x="71.984184"
         y="30.051704"
         ry="0.81061965"
         transform="matrix(0,1,1,0,0,0)" />
      <rect
         ry="0.81061965"
         y="40.635036"
         x="71.984184"
         height="5.9598422"
         width="13.010366"
         id="rect143"
         style="fill:#008000;stroke-width:0.05282451"
         transform="matrix(0,1,1,0,0,0)" />
      <rect
         style="fill:#008000;stroke-width:0.05282451"
         id="rect145"
         width="13.010366"
         height="5.9598422"
         x="71.984184"
         y="51.218369"
         ry="0.81061965"
         transform="matrix(0,1,1,0,0,0)" />
      <rect
         ry="0.81061965"
         y="61.801697"
         x="71.984184"
         height="5.9598422"
         width="13.010366"
         id="rect147"
         style="fill:#008000;stroke-width:0.05282451"
         transform="matrix(0,1,1,0,0,0)" />
      <rect
         style="fill:#008000;stroke-width:0.05282451"
         id="rect149"
         width="13.010366"
         height="5.9598422"
         x="71.984184"
         y="72.385025"
         ry="0.81061965"
         transform="matrix(0,1,1,0,0,0)" />
    </g>
  </g>
</svg>
